<svg width="512px" height="512px" viewBox="0 0 512 512" version="1.1" xmlns="http://www.w3.org/2000/svg">
	<defs>
		<linearGradient x1="0%" y1="100%" x2="100%" y2="0%" id="linearGradient-1">
			<stop stop-color="#5C2FFB" offset="0%" />
			<stop stop-color="#38C3FC" offset="100%" />
		</linearGradient>
	</defs>
	<g stroke="none" stroke-width="1" fill="none" fill-rule="evenodd">
		<path d="M256,512 C397.384896,512 512,397.384896 512,256 C512,114.615104 397.384896,0 256,0 C114.615104,0 0,114.615104 0,256 C0,397.384896 114.615104,512 256,512 Z" fill="url(#linearGradient-1)" />
		<g transform="translate(64.000000, 127.000000)">
			<path d="M370,164 L370,228 L15,228 L15,164 C34.3299662,164 50,148.329966 50,129 C50,109.670034 34.3299662,94 15,94 L15,30 L370,30 L370,94 C350.670034,94 335,109.670034 335,129 C335,148.329966 350.670034,164 370,164 Z" fill="#FFFFFF" opacity="0.30234375" transform="translate(192.500000, 129.000000) rotate(10.000000) translate(-192.500000, -129.000000) " />
			<path d="M370,164 L370,228 L15,228 L15,164 C34.3299662,164 50,148.329966 50,129 C50,109.670034 34.3299662,94 15,94 L15,30 L370,30 L370,94 C350.670034,94 335,109.670034 335,129 C335,148.329966 350.670034,164 370,164 Z" fill="#FFFFFF" />
			<path d="M265,46 L273,46 L273,76 L265,76 L265,46 Z M265,91 L273,91 L273,121 L265,121 L265,91 Z M265,136 L273,136 L273,166 L265,166 L265,136 Z M265,182 L273,182 L273,212 L265,212 L265,182 Z" fill="#554CFB" opacity="0.5" />
			<path d="M102,81 L218,81 L218,100 L102,100 L102,81 Z M102,110 L218,110 L218,129 L102,129 L102,110 Z M102,159 L182,159 L182,178 L102,178 L102,159 Z" fill="#5649FB" />
		</g>
	</g>
</svg>